# Blender v2.79 (sub 0) OBJ File: 'first shield.blend'
# www.blender.org
mtllib blankBasicShield.mtl
o Cylinder
v -0.075390 1.650784 0.087466
v -0.081097 2.098267 0.035281
v -0.082992 1.931715 -0.003875
v -0.095342 1.685797 0.191871
v -0.091483 2.074757 0.192389
v -0.105745 1.940342 0.192259
v -0.075390 1.650784 0.296275
v -0.080199 2.099529 0.348979
v -0.082319 1.932661 0.388005
v -0.089519 1.659563 0.304164
v -0.092067 2.098267 0.348461
v -0.101816 1.938299 0.393534
v -0.123599 1.703354 0.191871
v -0.115217 2.074757 0.191352
v -0.144740 1.953511 0.191482
v -0.089519 1.659563 0.079577
v -0.092965 2.099529 0.034762
v -0.102489 1.939245 -0.010181
v -0.086896 1.645657 0.156929
v -0.070476 1.612839 0.068233
v -0.079218 1.775037 0.038529
v -0.078422 2.106287 0.005639
v -0.086515 2.081515 0.143217
v -0.084392 2.059798 -0.013656
v -0.076153 1.929757 -0.084848
v -0.100394 1.937712 0.124555
v -0.086896 1.645657 0.226812
v -0.104858 1.812207 0.191968
v -0.085617 2.082777 0.241302
v -0.100466 2.038445 0.192486
v -0.099552 1.938895 0.259867
v -0.070476 1.612839 0.315508
v -0.079050 1.775274 0.345309
v -0.077973 2.106287 0.378102
v -0.083326 2.061296 0.398013
v -0.075816 1.929757 0.468590
v -0.108089 1.658825 0.234702
v -0.098053 1.785462 0.354580
v -0.103418 2.081515 0.240524
v -0.100067 2.061444 0.398876
v -0.133672 1.949234 0.266582
v -0.108089 1.658825 0.149040
v -0.142865 1.833057 0.191773
v -0.104315 2.082777 0.142439
v -0.133949 2.041737 0.191255
v -0.134514 1.950418 0.116478
v -0.098221 1.785699 0.029064
v -0.101133 2.062942 -0.015751
v -0.077587 1.532037 0.191871
v -0.079129 2.087782 0.191871
v -0.071447 1.753578 -0.018312
v -0.080007 2.070839 -0.090492
v -0.097668 1.794949 0.137890
v -0.096275 2.043412 0.123979
v -0.097458 1.795245 0.246022
v -0.094999 2.045206 0.260807
v -0.071363 1.753578 0.402054
v -0.079474 2.070839 0.474234
v -0.129830 1.812644 0.257069
v -0.123555 2.046293 0.261611
v -0.130041 1.812940 0.126502
v -0.124831 2.048087 0.121085
vn 0.9840 0.1071 0.1425
vn 0.9914 0.0732 0.1081
vn 0.9817 0.0936 0.1660
vn 0.8447 -0.5332 -0.0463
vn 0.9782 -0.2037 0.0414
vn 0.9888 -0.1435 0.0399
vn 0.9938 0.0566 0.0957
vn 0.9971 0.0236 0.0723
vn 0.9940 -0.0067 0.1091
vn 0.9875 0.0493 0.1498
vn 0.9934 0.1147 0.0000
vn 0.9893 0.0811 0.1214
vn 0.9890 0.0806 -0.1244
vn 0.7256 -0.6881 0.0022
vn 0.9648 -0.2560 -0.0610
vn 0.9654 -0.2559 0.0496
vn 0.9949 0.0181 0.0995
vn 0.9966 -0.0458 0.0690
vn 0.9954 -0.0474 -0.0835
vn 0.9940 0.0165 -0.1086
vn 0.9840 0.1071 -0.1425
vn 0.9818 0.0923 -0.1659
vn 0.9915 0.0721 -0.1078
vn 0.8392 -0.5418 0.0462
vn 0.9903 -0.1339 -0.0364
vn 0.9791 -0.1992 -0.0416
vn 0.9877 0.0457 -0.1495
vn 0.9941 -0.0100 -0.1079
vn 0.9975 0.0211 -0.0668
vn 0.9942 0.0535 -0.0931
vn -0.9175 -0.3077 0.2520
vn -0.8930 -0.2302 0.3867
vn -0.9505 -0.1704 0.2596
vn -0.3877 0.9171 -0.0934
vn -0.9023 0.4248 0.0729
vn -0.8413 0.5045 0.1942
vn -0.9256 -0.1363 0.3531
vn -0.9550 -0.0192 0.2959
vn -0.9776 0.0523 0.2039
vn -0.9628 -0.0690 0.2612
vn -0.9658 -0.2594 0.0000
vn -0.9743 -0.1539 0.1648
vn -0.9744 -0.1545 -0.1630
vn -0.3396 0.9404 0.0152
vn -0.8511 0.5188 -0.0805
vn -0.8490 0.5170 0.1087
vn -0.9860 -0.0278 0.1644
vn -0.9828 0.1150 0.1448
vn -0.9854 0.1116 -0.1288
vn -0.9871 -0.0306 -0.1571
vn -0.9175 -0.3077 -0.2520
vn -0.9503 -0.1716 -0.2597
vn -0.8929 -0.2309 -0.3866
vn -0.3288 0.9392 0.0992
vn -0.8210 0.5322 -0.2068
vn -0.8978 0.4344 -0.0725
vn -0.9624 -0.0732 -0.2616
vn -0.9774 0.0478 -0.2060
vn -0.9529 -0.0218 -0.3025
vn -0.9245 -0.1390 -0.3549
usemtl None
s off
f 1//1 19//1 49//1 20//1
f 1//2 20//2 51//2 21//2
f 1//3 21//3 53//3 19//3
f 2//4 22//4 50//4 23//4
f 2//5 23//5 54//5 24//5
f 2//6 24//6 52//6 22//6
f 3//7 21//7 51//7 25//7
f 3//8 25//8 52//8 24//8
f 3//9 24//9 54//9 26//9
f 3//10 26//10 53//10 21//10
f 4//11 27//11 49//11 19//11
f 4//12 19//12 53//12 28//12
f 4//13 28//13 55//13 27//13
f 5//14 23//14 50//14 29//14
f 5//15 29//15 56//15 30//15
f 5//16 30//16 54//16 23//16
f 6//17 28//17 53//17 26//17
f 6//18 26//18 54//18 30//18
f 6//19 30//19 56//19 31//19
f 6//20 31//20 55//20 28//20
f 7//21 32//21 49//21 27//21
f 7//22 27//22 55//22 33//22
f 7//23 33//23 57//23 32//23
f 8//24 29//24 50//24 34//24
f 8//25 34//25 58//25 35//25
f 8//26 35//26 56//26 29//26
f 9//27 33//27 55//27 31//27
f 9//28 31//28 56//28 35//28
f 9//29 35//29 58//29 36//29
f 9//30 36//30 57//30 33//30
f 10//31 37//31 49//31 32//31
f 10//32 32//32 57//32 38//32
f 10//33 38//33 59//33 37//33
f 11//34 34//34 50//34 39//34
f 11//35 39//35 60//35 40//35
f 11//36 40//36 58//36 34//36
f 12//37 38//37 57//37 36//37
f 12//38 36//38 58//38 40//38
f 12//39 40//39 60//39 41//39
f 12//40 41//40 59//40 38//40
f 13//41 42//41 49//41 37//41
f 13//42 37//42 59//42 43//42
f 13//43 43//43 61//43 42//43
f 14//44 39//44 50//44 44//44
f 14//45 44//45 62//45 45//45
f 14//46 45//46 60//46 39//46
f 15//47 43//47 59//47 41//47
f 15//48 41//48 60//48 45//48
f 15//49 45//49 62//49 46//49
f 15//50 46//50 61//50 43//50
f 16//51 20//51 49//51 42//51
f 16//52 42//52 61//52 47//52
f 16//53 47//53 51//53 20//53
f 17//54 44//54 50//54 22//54
f 17//55 22//55 52//55 48//55
f 17//56 48//56 62//56 44//56
f 18//57 47//57 61//57 46//57
f 18//58 46//58 62//58 48//58
f 18//59 48//59 52//59 25//59
f 18//60 25//60 51//60 47//60
