# Blender v2.79 (sub 0) OBJ File: 'meat hammer.blend'
# www.blender.org
mtllib Tenderizer.mtl
o Cone
v -0.271382 1.321660 -0.065238
v -0.270659 1.373570 -0.015098
v -0.266768 1.323472 0.036711
v -0.267491 1.271563 -0.013429
v -0.370991 1.319477 -0.009597
vn -0.3837 0.6443 -0.6615
vn -0.3234 0.6680 0.6702
vn -0.2820 -0.6645 0.6920
vn -0.3423 -0.6882 -0.6397
vn 0.9985 0.0303 -0.0457
usemtl Material.003
s off
f 1//1 5//1 2//1
f 2//2 5//2 3//2
f 3//3 5//3 4//3
f 4//4 5//4 1//4
f 1//5 2//5 3//5 4//5
o Cube
v -0.268993 1.259535 0.052391
v -0.268993 1.385874 0.052391
v -0.268993 1.259535 -0.073948
v -0.268993 1.385874 -0.073948
v 0.313927 1.201808 0.110118
v 0.313927 1.443601 0.110118
v 0.313927 1.201808 -0.131675
v 0.313927 1.443601 -0.131675
vn -1.0000 0.0000 0.0000
vn -0.0985 0.0000 -0.9951
vn 1.0000 0.0000 0.0000
vn -0.0985 0.0000 0.9951
vn -0.0985 -0.9951 0.0000
vn -0.0985 0.9951 0.0000
usemtl Material.015
s off
f 6//6 7//6 9//6 8//6
f 8//7 9//7 13//7 12//7
f 12//8 13//8 11//8 10//8
f 10//9 11//9 7//9 6//9
f 8//10 12//10 10//10 6//10
f 13//11 9//11 7//11 11//11
o Cylinder
v -0.001930 1.236351 0.014569
v -0.001930 0.034214 0.010196
v -0.017939 1.236351 0.008743
v -0.015128 0.034214 0.005393
v -0.026456 1.236351 -0.006011
v -0.022150 0.034214 -0.006770
v -0.023498 1.236351 -0.022788
v -0.019711 0.034214 -0.020601
v -0.010448 1.236351 -0.033738
v -0.008952 0.034214 -0.029629
v 0.006588 1.236351 -0.033738
v 0.005092 0.034214 -0.029629
v 0.019638 1.236351 -0.022788
v 0.015851 0.034214 -0.020601
v 0.022596 1.236351 -0.006011
v 0.018290 0.034214 -0.006770
v 0.014078 1.236351 0.008743
v 0.011267 0.034214 0.005393
vn -0.3420 -0.0034 0.9397
vn -0.8660 -0.0034 0.5000
vn -0.9848 -0.0034 -0.1736
vn -0.6428 -0.0034 -0.7660
vn 0.0000 -0.0034 -1.0000
vn 0.6428 -0.0034 -0.7660
vn 0.9848 -0.0034 -0.1736
vn 0.0000 -1.0000 0.0000
vn 0.8660 -0.0034 0.5000
vn 0.3420 -0.0034 0.9397
vn 0.0000 1.0000 0.0000
usemtl Material.001
s off
f 14//12 16//12 17//12 15//12
f 16//13 18//13 19//13 17//13
f 18//14 20//14 21//14 19//14
f 20//15 22//15 23//15 21//15
f 22//16 24//16 25//16 23//16
f 24//17 26//17 27//17 25//17
f 26//18 28//18 29//18 27//18
f 17//19 19//19 21//19 23//19 25//19 27//19 29//19 31//19 15//19
f 28//20 30//20 31//20 29//20
f 30//21 14//21 15//21 31//21
f 14//22 30//22 28//22 26//22 24//22 22//22 20//22 18//22 16//22
o Sphere
v -0.000445 0.180127 -0.086551
v -0.000445 0.140030 -0.105861
v -0.000445 0.217778 -0.008368
v 0.030235 0.207874 -0.039049
v 0.054838 0.180127 -0.063652
v 0.068492 0.140030 -0.077306
v 0.068492 0.095525 -0.077306
v 0.054838 0.055429 -0.063652
v 0.030235 0.027681 -0.039049
v 0.042943 0.207874 -0.008368
v 0.077738 0.180127 -0.008368
v 0.097047 0.140030 -0.008368
v 0.097047 0.095525 -0.008368
v 0.077738 0.055429 -0.008368
v 0.042943 0.027681 -0.008368
v -0.000445 0.017778 -0.008368
v 0.030235 0.207874 0.022312
v 0.054838 0.180127 0.046916
v 0.068492 0.140030 0.060569
v 0.068492 0.095525 0.060569
v 0.054838 0.055429 0.046916
v 0.030235 0.027681 0.022312
v -0.000445 0.207874 0.035020
v -0.000445 0.180127 0.069815
v -0.000445 0.140030 0.089124
v -0.000445 0.095525 0.089124
v -0.000445 0.055429 0.069815
v -0.000445 0.027681 0.035020
v -0.031126 0.207874 0.022312
v -0.055729 0.180127 0.046916
v -0.069383 0.140030 0.060569
v -0.069383 0.095525 0.060569
v -0.055729 0.055429 0.046916
v -0.031126 0.027681 0.022312
v -0.043834 0.207874 -0.008368
v -0.078629 0.180127 -0.008368
v -0.097938 0.140030 -0.008368
v -0.097938 0.095525 -0.008368
v -0.078629 0.055429 -0.008368
v -0.043834 0.027681 -0.008368
v -0.031126 0.207874 -0.039049
v -0.055729 0.180127 -0.063652
v -0.069383 0.140030 -0.077306
v -0.069383 0.095525 -0.077306
v -0.055729 0.055429 -0.063652
v -0.031126 0.027681 -0.039049
v -0.000445 0.207874 -0.051757
v -0.000445 0.095525 -0.105861
v -0.000445 0.055429 -0.086551
v -0.000445 0.027681 -0.051757
vn 0.2501 -0.7570 -0.6037
vn 0.3827 -0.0000 -0.9239
vn 0.2501 0.7570 -0.6037
vn 0.0918 -0.9708 -0.2216
vn 0.3496 -0.4065 -0.8441
vn 0.3496 0.4065 -0.8441
vn 0.0918 0.9708 -0.2216
vn 0.6037 -0.7570 -0.2501
vn 0.9239 0.0000 -0.3827
vn 0.6037 0.7570 -0.2501
vn 0.2216 -0.9708 -0.0918
vn 0.8441 -0.4065 -0.3496
vn 0.8441 0.4065 -0.3496
vn 0.2216 0.9708 -0.0918
vn 0.6037 -0.7570 0.2501
vn 0.9239 0.0000 0.3827
vn 0.6037 0.7570 0.2501
vn 0.2216 -0.9708 0.0918
vn 0.8441 -0.4065 0.3496
vn 0.8441 0.4065 0.3496
vn 0.2216 0.9708 0.0918
vn 0.2501 0.7570 0.6037
vn 0.0918 -0.9708 0.2216
vn 0.3496 -0.4065 0.8441
vn 0.3496 0.4065 0.8441
vn 0.0918 0.9708 0.2216
vn 0.2501 -0.7570 0.6037
vn 0.3827 0.0000 0.9239
vn -0.0918 -0.9708 0.2216
vn -0.3496 -0.4065 0.8441
vn -0.3496 0.4065 0.8441
vn -0.0918 0.9708 0.2216
vn -0.2501 -0.7570 0.6037
vn -0.3827 0.0000 0.9239
vn -0.2501 0.7570 0.6037
vn -0.8441 -0.4065 0.3496
vn -0.8441 0.4065 0.3496
vn -0.2216 0.9708 0.0918
vn -0.6037 -0.7570 0.2501
vn -0.9239 0.0000 0.3827
vn -0.6037 0.7570 0.2501
vn -0.2216 -0.9708 0.0918
vn -0.2216 0.9708 -0.0918
vn -0.6037 -0.7570 -0.2501
vn -0.9239 0.0000 -0.3827
vn -0.6037 0.7570 -0.2501
vn -0.2216 -0.9708 -0.0918
vn -0.8441 -0.4065 -0.3496
vn -0.8441 0.4065 -0.3496
vn -0.2501 -0.7570 -0.6037
vn -0.3827 -0.0000 -0.9239
vn -0.2501 0.7570 -0.6037
vn -0.0918 -0.9708 -0.2216
vn -0.3496 -0.4065 -0.8441
vn -0.3496 0.4065 -0.8441
vn -0.0918 0.9708 -0.2216
usemtl Material.002
s off
f 81//23 80//23 39//23 40//23
f 79//24 33//24 37//24 38//24
f 32//25 78//25 35//25 36//25
f 47//26 81//26 40//26
f 80//27 79//27 38//27 39//27
f 33//28 32//28 36//28 37//28
f 78//29 34//29 35//29
f 40//30 39//30 45//30 46//30
f 38//31 37//31 43//31 44//31
f 36//32 35//32 41//32 42//32
f 47//33 40//33 46//33
f 39//34 38//34 44//34 45//34
f 37//35 36//35 42//35 43//35
f 35//36 34//36 41//36
f 46//37 45//37 52//37 53//37
f 44//38 43//38 50//38 51//38
f 42//39 41//39 48//39 49//39
f 47//40 46//40 53//40
f 45//41 44//41 51//41 52//41
f 43//42 42//42 49//42 50//42
f 41//43 34//43 48//43
f 49//44 48//44 54//44 55//44
f 47//45 53//45 59//45
f 52//46 51//46 57//46 58//46
f 50//47 49//47 55//47 56//47
f 48//48 34//48 54//48
f 53//49 52//49 58//49 59//49
f 51//50 50//50 56//50 57//50
f 47//51 59//51 65//51
f 58//52 57//52 63//52 64//52
f 56//53 55//53 61//53 62//53
f 54//54 34//54 60//54
f 59//55 58//55 64//55 65//55
f 57//56 56//56 62//56 63//56
f 55//57 54//57 60//57 61//57
f 64//58 63//58 69//58 70//58
f 62//59 61//59 67//59 68//59
f 60//60 34//60 66//60
f 65//61 64//61 70//61 71//61
f 63//62 62//62 68//62 69//62
f 61//63 60//63 66//63 67//63
f 47//64 65//64 71//64
f 66//65 34//65 72//65
f 71//66 70//66 76//66 77//66
f 69//67 68//67 74//67 75//67
f 67//68 66//68 72//68 73//68
f 47//69 71//69 77//69
f 70//70 69//70 75//70 76//70
f 68//71 67//71 73//71 74//71
f 77//72 76//72 80//72 81//72
f 75//73 74//73 33//73 79//73
f 73//74 72//74 78//74 32//74
f 47//75 77//75 81//75
f 76//76 75//76 79//76 80//76
f 74//77 73//77 32//77 33//77
f 72//78 34//78 78//78
o Cone.004
v 0.313408 1.366845 -0.129998
v 0.314350 1.366347 -0.053701
v 0.312614 1.442630 -0.053181
v 0.311672 1.443129 -0.129478
v 0.420886 1.407201 -0.092905
vn 0.3547 -0.9349 -0.0105
vn 0.3449 0.0015 0.9387
vn 0.3118 0.9502 0.0024
vn 0.3216 0.0138 -0.9468
vn -0.9997 -0.0228 0.0122
usemtl Material.007
s off
f 82//79 86//79 83//79
f 83//80 86//80 84//80
f 84//81 86//81 85//81
f 85//82 86//82 82//82
f 82//83 83//83 84//83 85//83
o Cone.001_Cone.009
v 0.319102 1.367992 0.035958
v 0.320044 1.367494 0.112255
v 0.318309 1.443777 0.112774
v 0.317367 1.444275 0.036477
v 0.426581 1.408348 0.073050
vn 0.3547 -0.9349 -0.0105
vn 0.3449 0.0015 0.9387
vn 0.3118 0.9502 0.0024
vn 0.3216 0.0138 -0.9468
vn -0.9997 -0.0228 0.0122
usemtl Material.012
s off
f 87//84 91//84 88//84
f 88//85 91//85 89//85
f 89//86 91//86 90//86
f 90//87 91//87 87//87
f 87//88 88//88 89//88 90//88
o Cone.002_Cone.010
v 0.314547 1.199954 0.035958
v 0.315489 1.199456 0.112255
v 0.313753 1.275739 0.112774
v 0.312811 1.276237 0.036477
v 0.422025 1.240310 0.073050
vn 0.3547 -0.9349 -0.0105
vn 0.3449 0.0015 0.9387
vn 0.3118 0.9502 0.0024
vn 0.3216 0.0138 -0.9468
vn -0.9997 -0.0228 0.0122
usemtl Material.013
s off
f 92//89 96//89 93//89
f 93//90 96//90 94//90
f 94//91 96//91 95//91
f 95//92 96//92 92//92
f 92//93 93//93 94//93 95//93
o Cone.003_Cone.011
v 0.314547 1.199954 -0.132511
v 0.315489 1.199456 -0.056214
v 0.313753 1.275739 -0.055695
v 0.312811 1.276237 -0.131992
v 0.422025 1.240310 -0.095419
vn 0.3547 -0.9349 -0.0105
vn 0.3449 0.0015 0.9387
vn 0.3118 0.9502 0.0024
vn 0.3216 0.0138 -0.9468
vn -0.9997 -0.0228 0.0122
usemtl Material.014
s off
f 97//94 101//94 98//94
f 98//95 101//95 99//95
f 99//96 101//96 100//96
f 100//97 101//97 97//97
f 97//98 98//98 99//98 100//98
