# Blender v2.79 (sub 0) OBJ File: 'tree2.blend'
# www.blender.org
mtllib tree2.mtl
o Sphere.001
v -0.688201 5.857779 -0.750166
v -0.795604 4.419844 -0.148039
v 0.481099 4.494289 -2.629772
v -0.624702 5.740686 -1.504162
v -0.004809 6.447830 0.914214
v 0.485457 5.057025 -0.220096
v -0.823073 6.595181 -0.315195
v -0.417307 5.502525 -0.164604
v 1.877733 6.118820 -0.970506
v 1.455651 5.309929 -0.786421
v -0.525807 5.814964 1.406018
v -0.602743 5.174728 0.558274
v -0.390928 4.417213 1.261992
v 0.914564 4.572574 -0.058329
v 0.764952 6.149604 0.527245
v -1.072655 5.284173 0.177832
v -1.339035 4.746994 -0.805187
v -1.203291 5.347236 -1.179107
v 0.582738 5.431818 -1.820858
v 0.000305 5.290869 -2.595450
v -0.070066 5.555515 -0.234861
v -0.670646 5.059674 -2.281724
v -0.219216 4.087606 -1.369862
v 0.434304 4.684245 -0.843618
v 0.379107 7.612860 -0.180872
v -0.249624 6.101348 -1.741731
v 1.018077 6.074193 -2.087683
v 0.897777 5.179086 -1.577156
v -0.068629 5.336502 -1.274546
v 0.874693 6.990901 -1.779937
v 1.039148 5.395736 0.195005
v 1.379282 7.173787 -0.697482
v -0.000078 7.054244 -1.499685
v 1.304950 6.411022 0.581065
v 1.542989 5.831507 0.823073
v 0.342483 5.820175 1.578417
v -1.014809 5.199545 1.654537
v 1.105213 5.158953 -0.648159
v -0.235589 5.832842 0.624742
v 2.324470 5.188519 -0.249302
v 1.598808 4.496105 0.848802
v 1.795593 5.790983 0.049083
v 0.217653 4.833598 1.755236
v 0.487881 4.268934 0.786583
v 1.978312 5.161614 0.791773
v 1.794206 4.529480 0.071266
v -0.599259 4.521650 -2.301283
vn -0.6180 0.7673 -0.1712
vn 0.3799 0.9211 0.0845
vn -0.6303 0.7633 -0.1421
vn -0.2434 -0.4556 -0.8562
vn -0.2765 0.2667 -0.9233
vn 0.7308 -0.4096 -0.5460
vn 0.2159 -0.3959 0.8925
vn -0.8137 -0.5011 -0.2945
vn -0.3087 0.9466 -0.0930
vn -0.3921 -0.7848 -0.4800
vn 0.2379 0.5907 -0.7710
vn 0.8590 -0.4731 0.1956
vn 0.5301 0.0842 0.8438
vn 0.1445 -0.8368 0.5281
vn 0.1417 -0.8375 0.5277
vn 0.7860 0.5534 0.2756
vn 0.1999 -0.9798 0.0082
vn 0.3556 0.9322 0.0672
vn 0.8102 -0.5275 0.2558
vn 0.0035 -0.9416 -0.3366
vn -0.0606 0.9592 0.2762
vn 0.2261 0.8999 0.3729
vn -0.1524 -0.6564 0.7389
vn 0.3720 -0.8977 0.2363
vn 0.8494 -0.3541 0.3914
vn 0.6909 0.4689 -0.5503
vn 0.2453 -0.9694 -0.0127
vn 0.2620 0.9241 -0.2782
vn -0.2453 0.2985 -0.9223
vn -0.2043 -0.9675 -0.1491
vn -0.0536 0.9249 -0.3764
vn -0.4428 -0.8966 -0.0050
vn -0.9019 -0.3664 -0.2285
vn -0.2853 -0.6642 0.6910
vn -0.8221 -0.2337 0.5192
vn 0.4090 -0.8132 0.4141
vn 0.5113 -0.1548 0.8453
vn 0.2129 0.9681 -0.1324
vn 0.6265 -0.7732 0.0986
vn 0.1636 0.9416 -0.2944
vn -0.2914 -0.1351 -0.9470
vn -0.4105 0.5529 -0.7251
vn -0.4912 0.6694 -0.5573
vn -0.1364 -0.9181 -0.3722
vn -0.8984 -0.0672 -0.4341
vn -0.6615 0.5831 -0.4716
vn -0.9059 -0.1053 -0.4102
vn 0.8504 0.2821 -0.4441
vn 0.8479 -0.3673 0.3822
vn -0.4914 -0.5330 -0.6888
vn -0.0757 0.2829 0.9562
vn 0.8191 0.5211 0.2400
vn 0.4993 -0.2127 0.8399
vn -0.2358 -0.5795 0.7801
vn 0.3718 0.6842 0.6274
vn 0.4313 0.2396 0.8698
vn -0.0377 0.7587 -0.6504
vn 0.1022 -0.5004 -0.8598
vn 0.2296 -0.7263 -0.6479
vn -0.4923 -0.6623 -0.5647
vn -0.8142 0.4863 -0.3171
vn -0.8031 0.5225 -0.2864
vn -0.5382 -0.8381 -0.0887
vn 0.8967 0.3553 0.2641
vn 0.7478 -0.4917 -0.4462
vn -0.3300 -0.5477 -0.7689
vn -0.8302 0.3313 -0.4484
vn -0.9023 -0.3591 -0.2384
vn -0.5987 0.6444 0.4757
vn -0.0167 0.8536 0.5207
vn 0.4346 -0.3331 0.8368
vn 0.8962 0.2761 0.3473
vn 0.6796 0.4356 -0.5903
vn 0.9889 -0.1427 0.0411
vn -0.4171 -0.0223 -0.9086
vn -0.9539 0.2811 0.1049
vn -0.7419 0.6626 0.1022
vn -0.7908 -0.4210 0.4443
usemtl treetop
s off
f 1//1 4//1 18//1
f 19//2 1//2 21//2
f 7//3 25//3 33//3
f 26//4 27//4 28//4
f 33//5 30//5 27//5
f 27//6 9//6 28//6
f 34//7 5//7 31//7
f 37//8 12//8 13//8
f 11//9 15//9 39//9
f 44//10 13//10 14//10
f 38//11 42//11 40//11
f 46//12 45//12 41//12
f 35//13 36//13 43//13
f 44//14 43//14 13//14
f 44//15 41//15 43//15
f 40//16 42//16 45//16
f 44//17 46//17 41//17
f 42//18 15//18 35//18
f 40//19 45//19 46//19
f 44//20 14//20 46//20
f 36//21 15//21 11//21
f 35//22 15//22 36//22
f 31//23 5//23 6//23
f 6//24 10//24 31//24
f 10//25 9//25 31//25
f 27//26 32//26 9//26
f 6//27 28//27 10//27
f 30//28 25//28 32//28
f 33//29 27//29 26//29
f 6//30 29//30 28//30
f 30//31 33//31 25//31
f 6//32 8//32 29//32
f 7//33 29//33 8//33
f 5//34 8//34 6//34
f 5//35 7//35 8//35
f 23//36 24//36 2//36
f 16//37 2//37 24//37
f 1//38 19//38 4//38
f 23//39 3//39 24//39
f 20//40 4//40 19//40
f 47//41 20//41 3//41
f 38//42 12//42 39//42 15//42
f 22//43 4//43 20//43
f 47//44 3//44 23//44
f 18//45 47//45 17//45
f 18//46 4//46 22//46
f 47//47 18//47 22//47
f 27//48 30//48 32//48
f 9//49 34//49 31//49
f 12//50 38//50 14//50
f 11//51 37//51 43//51 36//51
f 45//52 42//52 35//52
f 41//53 45//53 43//53
f 43//54 37//54 13//54
f 5//55 34//55 32//55 25//55
f 45//56 35//56 43//56
f 38//57 15//57 42//57
f 14//58 40//58 46//58
f 14//59 38//59 40//59
f 13//60 12//60 14//60
f 37//61 39//61 12//61
f 11//62 39//62 37//62
f 23//63 2//63 17//63 47//63
f 9//64 32//64 34//64
f 28//65 9//65 10//65
f 29//66 26//66 28//66
f 7//67 33//67 26//67
f 7//68 26//68 29//68
f 5//69 25//69 7//69
f 21//70 1//70 16//70
f 24//71 21//71 16//71
f 19//72 21//72 24//72
f 3//73 20//73 19//73
f 3//74 19//74 24//74
f 22//75 20//75 47//75
f 16//76 18//76 17//76
f 16//77 1//77 18//77
f 2//78 16//78 17//78
o Cylinder
v 0.281551 3.076638 -0.160058
v 1.897086 4.956873 0.021230
v 1.287999 3.567715 0.194273
v 1.237448 3.613410 0.071294
v 1.069238 3.744309 0.189075
v 1.229169 3.610317 0.314653
v 1.316345 4.465291 -0.179401
v 1.397922 4.399438 -0.177462
v 1.310169 4.462984 0.002098
v 1.272469 4.497064 -0.089621
v 1.435622 4.365358 -0.085743
v 1.391746 4.397131 0.004037
v -0.189348 3.932744 -0.049342
v -0.189348 3.932744 -0.293506
v -0.612251 3.932744 -0.049342
v -0.400800 3.932744 0.072739
v -0.400800 3.932744 -0.415587
v -0.612251 3.932744 -0.293506
v 0.943098 2.292279 0.173190
v 0.376058 2.292279 0.173190
v 0.659578 2.292279 -0.317882
v 0.943098 2.292279 -0.154191
v -0.113069 5.686363 -0.112499
v -0.392303 -0.093493 -0.226496
v -0.147956 5.711773 0.042552
v -0.392303 -0.093493 0.226496
v -0.034887 5.690260 0.155051
v -0.000000 -0.093493 0.452993
v 0.113069 5.643336 0.112499
v 0.392303 -0.093493 0.226496
v 0.147956 5.617926 -0.042552
v 0.392303 -0.093493 -0.226496
v 0.034887 5.639440 -0.155051
v 0.000000 -0.093493 -0.452993
v 0.659578 2.292279 0.336880
v 0.376058 2.292279 -0.154191
v 1.866230 4.993785 0.070857
v 0.200149 3.135586 0.006510
v 1.872109 4.974517 0.136976
v 0.270094 3.072358 0.176675
v 1.908843 4.918337 0.153467
v 0.421443 2.950183 0.180271
v 1.939699 4.881426 0.103839
v 0.502846 2.891235 0.013703
v 1.933821 4.900694 0.037721
v 0.432900 2.954463 -0.156462
v 1.119788 3.698614 0.312054
v 1.128068 3.701707 0.068695
v -0.052070 3.578693 -0.326052
v -0.312753 4.465239 -1.965072
v -0.364845 4.238825 -0.832991
v -0.273002 4.195433 -0.864762
v -0.364398 4.048459 -0.928229
v -0.456465 4.187036 -0.848839
v -0.192949 4.219669 -1.271264
v -0.193116 4.290657 -1.235750
v -0.329777 4.213407 -1.259389
v -0.261280 4.181043 -1.283084
v -0.261613 4.323020 -1.212055
v -0.329944 4.284395 -1.223874
v -0.351287 4.435862 -1.984816
v -0.178842 3.507031 -0.347981
v -0.400445 4.442585 -1.968206
v -0.305924 3.567073 -0.304020
v -0.411071 4.478684 -1.931852
v -0.306233 3.698777 -0.238131
v -0.372537 4.508061 -1.912109
v -0.179461 3.770439 -0.216202
v -0.323378 4.501339 -1.928719
v -0.052379 3.710397 -0.260163
v -0.456241 4.091852 -0.896458
v -0.272779 4.100250 -0.912381
v -0.024018 3.378276 0.025547
v -0.043388 4.373583 1.022011
v -0.308834 3.872397 0.368712
v -0.257651 3.826856 0.409381
v -0.151952 3.889964 0.347023
v -0.281578 3.926723 0.317199
v 0.045044 4.020442 0.764520
v -0.013458 4.013890 0.772608
v 0.027200 4.094922 0.695770
v 0.065373 4.060957 0.726101
v -0.051631 4.047856 0.742277
v -0.031303 4.088371 0.703858
v -0.022349 4.401263 1.003973
v 0.013698 3.453444 -0.045732
v -0.038961 4.423693 0.976493
v -0.057125 3.516459 -0.102005
v -0.076610 4.418444 0.967052
v -0.165663 3.504306 -0.087000
v -0.097648 4.390764 0.985091
v -0.203379 3.429138 -0.015721
v -0.081037 4.368334 1.012570
v -0.132556 3.366122 0.040552
v -0.203136 3.935505 0.306354
v -0.179209 3.835640 0.398537
vn 0.0000 1.0000 0.0000
vn -0.2761 -0.9565 0.0946
vn 0.9578 -0.2690 0.1008
vn -0.5853 0.0111 0.8107
vn 0.7928 -0.3881 -0.4701
vn 0.4915 -0.1841 0.8512
vn -0.9758 0.1957 -0.0977
vn -0.2326 -0.3152 -0.9201
vn 0.4682 0.3509 0.8109
vn 0.4918 0.1807 -0.8518
vn -0.4977 0.0956 -0.8621
vn -0.4825 -0.2621 0.8357
vn -0.4538 -0.4199 -0.7860
vn 0.5789 -0.0960 -0.8097
vn 0.9519 -0.3066 0.0000
vn 0.1883 0.2612 0.9467
vn 0.0938 0.0871 -0.9918
vn -0.4980 0.0888 0.8626
vn -0.8230 -0.5681 0.0000
vn 0.4921 -0.1775 -0.8523
vn 0.3828 -0.2180 0.8978
vn 0.6274 0.7781 0.0312
vn -0.9744 0.2249 0.0000
vn 0.4181 -0.7058 0.5719
vn -0.3971 0.1404 -0.9070
vn -0.1489 -0.1557 0.9765
vn 0.6588 -0.6386 -0.3977
vn -0.4772 0.6596 -0.5808
vn -0.7167 0.5764 0.3927
vn -0.8210 -0.5636 -0.0913
vn -0.8310 0.3148 0.4586
vn 0.8566 0.5160 0.0000
vn 0.4328 -0.7623 0.4813
vn -0.6323 0.6045 0.4845
vn -0.8969 0.0108 -0.4421
vn 0.5684 -0.6671 -0.4815
vn -0.2610 -0.1082 0.9593
vn -0.4988 0.7112 -0.4954
vn 0.2068 0.0529 -0.9770
vn 0.8863 -0.0698 0.4578
vn 0.5028 0.7516 0.4269
vn 0.9487 -0.1397 0.2838
vn -0.9781 0.0913 -0.1872
vn 0.9813 0.0879 -0.1711
vn -0.0976 0.4451 -0.8901
vn -0.5743 0.7394 0.3514
vn -0.9602 -0.1267 0.2488
vn 0.3835 0.8861 0.2603
vn 0.5731 -0.7683 -0.2851
vn -0.3686 -0.9090 -0.1944
vn 0.1498 -0.6793 0.7184
vn -0.4923 -0.8117 -0.3143
vn -0.4455 0.5791 0.6828
vn -0.5025 -0.7546 -0.4220
vn 0.4987 -0.8650 -0.0563
vn 0.5052 0.7056 0.4968
vn -0.9770 -0.1775 0.1178
vn 0.4647 -0.6323 -0.6199
vn 0.9878 0.1421 -0.0634
vn -0.5070 0.8453 0.1685
vn -0.7488 -0.3267 0.5767
vn 0.1469 -0.9429 0.2991
vn -0.1536 0.9167 -0.3688
vn 0.1750 -0.6552 0.7349
vn 0.0249 0.6813 0.7316
vn -0.8719 0.1406 -0.4690
vn -0.1750 0.5859 -0.7913
vn -0.8232 -0.4633 0.3282
vn 0.8880 -0.1932 0.4173
vn 0.8274 0.4045 -0.3896
vn 0.2680 -0.6606 -0.7012
vn 0.7326 0.2627 -0.6278
vn -0.9017 0.0447 -0.4300
vn 0.7651 0.5160 -0.3851
vn 0.7589 -0.6062 -0.2378
vn -0.7582 -0.5710 0.3148
vn -0.0578 0.5656 -0.8227
vn 0.9208 -0.1063 0.3752
vn 0.0662 -0.6286 0.7749
vn -0.7918 0.5797 0.1924
usemtl Material.001
s off
f 73//79 75//79 77//79 79//79 81//79 71//79
f 72//80 70//80 80//80 78//80 76//80 74//80
f 62//81 65//81 70//81 72//81
f 64//82 61//82 78//82 80//82
f 94//83 52//83 57//83 56//83
f 71//84 81//84 68//84 83//84
f 61//85 60//85 76//85 78//85
f 53//86 94//86 56//86 59//86
f 83//87 68//87 64//87 65//87
f 82//88 67//88 62//88 63//88
f 77//89 75//89 82//89 66//89
f 68//90 69//90 61//90 64//90
f 66//91 82//91 63//91 60//91
f 63//92 62//92 72//92 74//92
f 73//93 71//93 83//93 67//93
f 95//94 51//94 55//94 54//94
f 89//95 87//95 94//95 53//95
f 81//96 79//96 69//96 68//96
f 69//97 66//97 60//97 61//97
f 75//98 73//98 67//98 82//98
f 65//99 64//99 80//99 70//99
f 85//100 87//100 89//100 91//100 93//100 48//100
f 79//101 77//101 66//101 69//101
f 57//102 54//102 49//102 84//102
f 60//103 63//103 74//103 76//103
f 48//104 93//104 51//104 95//104
f 56//105 57//105 84//105 86//105
f 58//106 59//106 88//106 90//106
f 55//107 58//107 90//107 92//107
f 84//108 49//108 92//108 90//108 88//108 86//108
f 51//109 50//109 58//109 55//109
f 67//110 83//110 65//110 62//110
f 85//111 48//111 95//111 52//111
f 93//112 91//112 50//112 51//112
f 50//113 53//113 59//113 58//113
f 87//114 85//114 52//114 94//114
f 54//115 55//115 92//115 49//115
f 91//116 89//116 53//116 50//116
f 59//117 56//117 86//117 88//117
f 52//118 95//118 54//118 57//118
f 118//119 100//119 105//119 104//119
f 101//120 118//120 104//120 107//120
f 119//121 99//121 103//121 102//121
f 113//122 111//122 118//122 101//122
f 109//123 111//123 113//123 115//123 117//123 96//123
f 105//124 102//124 97//124 108//124
f 96//125 117//125 99//125 119//125
f 104//126 105//126 108//126 110//126
f 106//127 107//127 112//127 114//127
f 103//128 106//128 114//128 116//128
f 108//129 97//129 116//129 114//129 112//129 110//129
f 99//130 98//130 106//130 103//130
f 109//131 96//131 119//131 100//131
f 117//132 115//132 98//132 99//132
f 98//133 101//133 107//133 106//133
f 111//134 109//134 100//134 118//134
f 102//135 103//135 116//135 97//135
f 115//136 113//136 101//136 98//136
f 107//137 104//137 110//137 112//137
f 100//138 119//138 102//138 105//138
f 142//139 124//139 129//139 128//139
f 125//140 142//140 128//140 131//140
f 143//141 123//141 127//141 126//141
f 137//142 135//142 142//142 125//142
f 133//143 135//143 137//143 139//143 141//143 120//143
f 129//144 126//144 121//144 132//144
f 120//145 141//145 123//145 143//145
f 128//146 129//146 132//146 134//146
f 130//147 131//147 136//147 138//147
f 127//148 130//148 138//148 140//148
f 132//149 121//149 140//149 138//149 136//149 134//149
f 123//150 122//150 130//150 127//150
f 133//151 120//151 143//151 124//151
f 141//152 139//152 122//152 123//152
f 122//153 125//153 131//153 130//153
f 135//154 133//154 124//154 142//154
f 126//155 127//155 140//155 121//155
f 139//156 137//156 125//156 122//156
f 131//157 128//157 134//157 136//157
f 124//158 143//158 126//158 129//158
